<svg width="68" height="60" viewBox="0 0 68 60" fill="none" xmlns="http://www.w3.org/2000/svg">
<g filter="url(#filter0_d_0_55)">
<circle cx="34" cy="29.9248" r="20" fill="#4CBAD8"/>
</g>
<path d="M28.6012 30.4902H37.5658L35.2196 32.8364C34.9849 33.071 34.9849 33.4474 35.2196 33.682C35.3369 33.7993 35.4884 33.858 35.6448 33.858C35.8012 33.858 35.9527 33.7993 36.0701 33.682L39.4379 30.3142C39.6725 30.0796 39.6725 29.7032 39.4379 29.4686L36.0701 26.1008C35.8354 25.8661 35.4591 25.8661 35.2244 26.1008C34.9898 26.3354 34.9898 26.7118 35.2244 26.9464L37.5707 29.2926H28.6012C28.2688 29.2926 28 29.5615 28 29.8938C28 30.2262 28.2688 30.4902 28.6012 30.4902Z" fill="white"/>
<defs>
<filter id="filter0_d_0_55" x="0" y="-0.0751953" width="68" height="68" filterUnits="userSpaceOnUse" color-interpolation-filters="sRGB">
<feFlood flood-opacity="0" result="BackgroundImageFix"/>
<feColorMatrix in="SourceAlpha" type="matrix" values="0 0 0 0 0 0 0 0 0 0 0 0 0 0 0 0 0 0 127 0" result="hardAlpha"/>
<feOffset dy="4"/>
<feGaussianBlur stdDeviation="7"/>
<feColorMatrix type="matrix" values="0 0 0 0 0.298039 0 0 0 0 0.729412 0 0 0 0 0.847059 0 0 0 0.5 0"/>
<feBlend mode="normal" in2="BackgroundImageFix" result="effect1_dropShadow_0_55"/>
<feBlend mode="normal" in="SourceGraphic" in2="effect1_dropShadow_0_55" result="shape"/>
</filter>
</defs>
</svg>
