<svg width="68" height="69" viewBox="0 0 68 69" fill="none" xmlns="http://www.w3.org/2000/svg">
<g filter="url(#filter0_d_0_250)">
<circle cx="34" cy="30.2998" r="20" fill="#4CBAD8"/>
</g>
<path d="M28.6012 30.8652H37.5658L35.2196 33.2114C34.9849 33.4461 34.9849 33.8224 35.2196 34.0571C35.3369 34.1744 35.4884 34.233 35.6448 34.233C35.8012 34.233 35.9527 34.1744 36.0701 34.0571L39.4379 30.6892C39.6725 30.4546 39.6725 30.0782 39.4379 29.8436L36.0701 26.4758C35.8354 26.2412 35.4591 26.2412 35.2244 26.4758C34.9898 26.7104 34.9898 27.0868 35.2244 27.3214L37.5707 29.6677H28.6012C28.2688 29.6677 28 29.9365 28 30.2689C28 30.6013 28.2688 30.8652 28.6012 30.8652Z" fill="white"/>
<defs>
<filter id="filter0_d_0_250" x="0" y="0.299835" width="68" height="68" filterUnits="userSpaceOnUse" color-interpolation-filters="sRGB">
<feFlood flood-opacity="0" result="BackgroundImageFix"/>
<feColorMatrix in="SourceAlpha" type="matrix" values="0 0 0 0 0 0 0 0 0 0 0 0 0 0 0 0 0 0 127 0" result="hardAlpha"/>
<feOffset dy="4"/>
<feGaussianBlur stdDeviation="7"/>
<feColorMatrix type="matrix" values="0 0 0 0 0.298039 0 0 0 0 0.729412 0 0 0 0 0.847059 0 0 0 0.5 0"/>
<feBlend mode="normal" in2="BackgroundImageFix" result="effect1_dropShadow_0_250"/>
<feBlend mode="normal" in="SourceGraphic" in2="effect1_dropShadow_0_250" result="shape"/>
</filter>
</defs>
</svg>
