<svg width="26" height="26" viewBox="0 0 26 26" fill="none" xmlns="http://www.w3.org/2000/svg">
<path fill-rule="evenodd" clip-rule="evenodd" d="M24.9707 12.9853C24.9707 19.5939 19.5939 24.9707 12.9853 24.9707C6.37678 24.9707 1 19.5939 1 12.9853C1 6.37678 6.37678 1 12.9853 1C19.5939 1 24.9707 6.37678 24.9707 12.9853ZM23.7731 12.9853C23.7731 7.03666 18.934 2.19756 12.9853 2.19756C7.03666 2.19756 2.19756 7.03666 2.19756 12.9853C2.19756 18.934 7.03666 23.7731 12.9853 23.7731C18.934 23.7731 23.7731 18.934 23.7731 12.9853Z" fill="white"/>
<path d="M12.9853 25.4707C19.87 25.4707 25.4707 19.87 25.4707 12.9853H24.4707C24.4707 19.3177 19.3177 24.4707 12.9853 24.4707V25.4707ZM0.5 12.9853C0.5 19.87 6.10064 25.4707 12.9853 25.4707V24.4707C6.65292 24.4707 1.5 19.3177 1.5 12.9853H0.5ZM12.9853 0.5C6.10064 0.5 0.5 6.10064 0.5 12.9853H1.5C1.5 6.65293 6.65293 1.5 12.9853 1.5V0.5ZM25.4707 12.9853C25.4707 6.10064 19.87 0.5 12.9853 0.5V1.5C19.3177 1.5 24.4707 6.65292 24.4707 12.9853H25.4707ZM12.9853 2.69756C18.6579 2.69756 23.2731 7.3128 23.2731 12.9853H24.2731C24.2731 6.76052 19.2102 1.69756 12.9853 1.69756V2.69756ZM2.69756 12.9853C2.69756 7.3128 7.3128 2.69756 12.9853 2.69756V1.69756C6.76052 1.69756 1.69756 6.76052 1.69756 12.9853H2.69756ZM12.9853 23.2731C7.3128 23.2731 2.69756 18.6579 2.69756 12.9853H1.69756C1.69756 19.2102 6.76052 24.2731 12.9853 24.2731V23.2731ZM23.2731 12.9853C23.2731 18.6579 18.6579 23.2731 12.9853 23.2731V24.2731C19.2102 24.2731 24.2731 19.2102 24.2731 12.9853H23.2731Z" fill="white"/>
<path d="M7.77963 13.5866H16.7442L14.398 15.9328C14.1633 16.1675 14.1633 16.5438 14.398 16.7785C14.5153 16.8958 14.6668 16.9544 14.8232 16.9544C14.9796 16.9544 15.1312 16.8958 15.2485 16.7785L18.6163 13.4106C18.8509 13.176 18.8509 12.7997 18.6163 12.565L15.2485 9.19721C15.0138 8.96258 14.6375 8.96258 14.4028 9.19721C14.1682 9.43183 14.1682 9.80821 14.4028 10.0428L16.7491 12.3891H7.77963C7.44724 12.3891 7.17841 12.6579 7.17841 12.9903C7.17841 13.3227 7.44724 13.5866 7.77963 13.5866Z" fill="white"/>
</svg>
