<svg width="56" height="66" viewBox="0 0 56 66" fill="none" xmlns="http://www.w3.org/2000/svg">
<g filter="url(#filter0_d_0_122)">
<circle cx="22" cy="30.1831" r="20" fill="#4CBAD8"/>
</g>
<path d="M16.6012 30.7485H25.5658L23.2196 33.0947C22.9849 33.3293 22.9849 33.7057 23.2196 33.9403C23.3369 34.0576 23.4884 34.1163 23.6448 34.1163C23.8012 34.1163 23.9527 34.0576 24.0701 33.9403L27.4379 30.5725C27.6725 30.3379 27.6725 29.9615 27.4379 29.7269L24.0701 26.3591C23.8354 26.1244 23.4591 26.1244 23.2244 26.3591C22.9898 26.5937 22.9898 26.9701 23.2244 27.2047L25.5707 29.5509H16.6012C16.2688 29.5509 16 29.8198 16 30.1521C16 30.4845 16.2688 30.7485 16.6012 30.7485Z" fill="white"/>
<defs>
<filter id="filter0_d_0_122" x="-12" y="0.183105" width="68" height="68" filterUnits="userSpaceOnUse" color-interpolation-filters="sRGB">
<feFlood flood-opacity="0" result="BackgroundImageFix"/>
<feColorMatrix in="SourceAlpha" type="matrix" values="0 0 0 0 0 0 0 0 0 0 0 0 0 0 0 0 0 0 127 0" result="hardAlpha"/>
<feOffset dy="4"/>
<feGaussianBlur stdDeviation="7"/>
<feColorMatrix type="matrix" values="0 0 0 0 0.298039 0 0 0 0 0.729412 0 0 0 0 0.847059 0 0 0 0.5 0"/>
<feBlend mode="normal" in2="BackgroundImageFix" result="effect1_dropShadow_0_122"/>
<feBlend mode="normal" in="SourceGraphic" in2="effect1_dropShadow_0_122" result="shape"/>
</filter>
</defs>
</svg>
