<svg width="148" height="16" viewBox="0 0 148 16" fill="none" xmlns="http://www.w3.org/2000/svg">
<path fill-rule="evenodd" clip-rule="evenodd" d="M145.656 0H134.344C133.05 0 132 1.05 132 2.34375V13.6562C132 14.95 133.05 16 134.344 16H145.656C146.95 16 148 14.95 148 13.6562V2.34375C148 1.05 146.95 0 145.656 0ZM135.781 8.03125C135.781 10.3562 137.675 12.25 140 12.25C142.325 12.25 144.219 10.3562 144.219 8.03125C144.219 5.70622 142.325 3.8125 140 3.8125C137.675 3.8125 135.781 5.70622 135.781 8.03125ZM145.156 3.8125C144.641 3.8125 144.219 3.39062 144.219 2.875C144.219 2.35938 144.641 1.9375 145.156 1.9375C145.672 1.9375 146.094 2.35938 146.094 2.875C146.094 3.39062 145.672 3.8125 145.156 3.8125ZM136.719 8.03125C136.719 6.22188 138.191 4.75 140 4.75C141.809 4.75 143.281 6.22188 143.281 8.03125C143.281 9.84062 141.809 11.3125 140 11.3125C138.191 11.3125 136.719 9.84062 136.719 8.03125Z" fill="#212121"/>
<path fill-rule="evenodd" clip-rule="evenodd" d="M68.3438 0H79.6562C80.9485 0 82 1.05151 82 2.34375V13.6562C82 14.9485 80.9485 16 79.6562 16H68.3438C67.0515 16 66 14.9485 66 13.6562V2.34375C66 1.05151 67.0515 0 68.3438 0ZM69.7812 12.6875H71.6562V6.125H69.7812V12.6875ZM71.6562 5.1875H69.7812V3.3125H71.6562V5.1875ZM76.3438 12.6875H78.2188V8.61523C78.2188 7.26709 77.1466 6.12634 75.875 6.125C75.4397 6.125 75.1521 6.23209 74.8372 6.34935C74.721 6.3926 74.6011 6.43724 74.4688 6.47839V6.125H72.5938V12.6875H74.4688V8.9375C74.4688 8.42065 74.8894 8 75.4062 8C75.9231 8 76.3438 8.42065 76.3438 8.9375V12.6875Z" fill="#212121"/>
<path fill-rule="evenodd" clip-rule="evenodd" d="M3 0H13C14.6572 0 16 1.34277 16 3V13C16 14.6572 14.6572 16 13 16H3C1.34277 16 0 14.6572 0 13V3C0 1.34277 1.34277 0 3 0ZM11.096 8.61662H12.5932L12.7969 6.74954H11.096L11.0991 5.70154C11.0991 5.20308 11.1458 4.93662 11.8609 4.93662H12.9422V3.07692H11.0806C9.24369 3.07692 8.59631 4.00246 8.59569 5.56123V6.75015H7.62585V8.61662H8.59569V14.1575H11.096V8.61662Z" fill="#212121"/>
</svg>
